<?xml version="1.0" encoding="UTF-8"?>
<svg width="140px" height="17px" xmlns="http://www.w3.org/2000/svg" viewBox="0 0 93.77 15.74">
<defs><style>.cls-1{fill:#1b2136;}</style></defs>
<title>Quorum Maker</title>
<g id="Page-1" data-name="Page-1">
   <g id="1-CreateNetwork" data-name="图层 1">
       <path class="cls-1" d="M38.26,5.71h-2.6V4.49h.63l-.66-.83a7.07,7.07,0,0,0,1.69-2.45l1.19.25q-.1.28-.32.78H42V3.42H40q-.06.7-.11,1.06h2.51V5.71H39.63l-.06.2a18.83,18.83,0,0,1,2.63,1.6l-.83.84h5.35v5.95H45.39v-.55H38.78v.55H37.45V8.53a12.27,12.27,0,0,1-1.16.64l-.9-1.08a5.44,5.44,0,0,0,2.84-2.34Zm-.73-2.28a6.5,6.5,0,0,1-.92,1.06h2q.08-.53.13-1.06Zm3.61,4.91a14.17,14.17,0,0,0-2-1.47,5.8,5.8,0,0,1-1.41,1.47Zm-2.37,2.16h6.61v-1H38.78Zm0,2.07h6.61v-.92H38.78Zm4.07-10.3h4.9V7.55h-4.9Zm3.6,4.13v-3h-2.3v3Z"/><path class="cls-1" d="M53.09,11.46A8.85,8.85,0,0,1,51.88,14l-1.06-.67a7,7,0,0,0,1.12-2.17Zm8.78-.76H57.22a10.71,10.71,0,0,1,1.34,1.25l-.92.63a11.45,11.45,0,0,0-1.47-1.43l.73-.45h-5v-1h8.72V9.16H52.51V8.25h8.08V7.69H52v-1h1.53V6H51.15V5.12h2.41v-.6H51.67V3.59h1.89V3H51.42V2.08h2.14V1.39h1.29v.69h1.92V3H54.85v.59h1.71v.92H54.85v.6h1.9V6h-1.9v.7h4.42V6H57.19V5.12h2.09v-.6H57.48V3.59h1.79V3h-2V2.08h2V1.39h1.29v.69h2.13V3H60.56v.59H62.4v.92H60.56v.6h2.32V6H60.56v.7h1.3ZM55.21,14q-1.36,0-1.36-1.25V11.18h1.29v1.3c0,.26.14.39.42.39h3.18a.76.76,0,0,0,.5-.15,2.31,2.31,0,0,0,.28-1.18l1.21.38q-.17,1.54-.57,1.82A2.16,2.16,0,0,1,59,14Zm6.54-3a18,18,0,0,1,1.83,2.18l-1,.69a19.18,19.18,0,0,0-1.8-2.28Z"/><path class="cls-1" d="M65.84,5.92H78.48V7.25H71.85a26.16,26.16,0,0,1-3.16,5.17q3.39-.21,6.86-.7-.7-1.26-1.47-2.46l1.06-.66a43.89,43.89,0,0,1,3,4.94l-1.19.83q-.45-1-.7-1.43-4.23.59-9.17.92l-.35-1.36a1.66,1.66,0,0,0,.32-.13q1.29-1,3.36-5.12H65.84Zm1.34-3.86H77.24V3.34H67.18Z"/><path class="cls-1" d="M83.44,1.65q-.08.41-.28,1.19h1.92V4.09H82.79q-.29.84-.59,1.55h2.67V6.84h-1V8.28h1.43V9.51H83.84v2.81a12,12,0,0,0,1-.73l.22,1.15A9.82,9.82,0,0,1,82.71,14l-.5-1.09a.55.55,0,0,0,.36-.52V9.51H81.13V8.28h1.44V6.84H82V6.08l-.27.53L80.69,6a16.65,16.65,0,0,0,1.47-4.58ZM93.77,12.79,93.43,14h-2l-1.26,0a6,6,0,0,1-1.69-.25,2.77,2.77,0,0,1-1.2-.8.71.71,0,0,0-.46-.29q-.29,0-1.16,1.6l-.77-1a6.09,6.09,0,0,1,1.37-1.67V7.12h-1V5.94h2.2v5.74a3,3,0,0,0,1,.84,5.25,5.25,0,0,0,1.41.27l1.6,0ZM86.22,1.57a16.79,16.79,0,0,1,1.4,2.24l-1,.7a16.36,16.36,0,0,0-1.4-2.34Zm1.85,7.52h2.48V7.68H88.37l-.25-1.09A13.39,13.39,0,0,0,89.28,4H88V2.82h1.62q.2-.71.38-1.47l1.18.28-.31,1.19h2.51V4H90.52a17,17,0,0,1-1,2.53h1.08V4.74h1.23V6.52h1.47V7.68H91.78V9.09h1.88v1.18H91.78v2.1H90.55v-2.1H88.07Z"/><path class="cls-1" d="M5.74,15.74A15.54,15.54,0,0,0,12,4.72V0A6.39,6.39,0,0,0,6.21,4.59a5.47,5.47,0,0,0-.69,0,5.6,5.6,0,0,0,0,11.2Z"/><path class="cls-1" d="M20.32,6.37a4.5,4.5,0,0,0-1.57.3c0-.1,0-.2,0-.3A6.4,6.4,0,0,0,13.05,0V4.84a15.67,15.67,0,0,0,6.18,10.9h1.08a4.69,4.69,0,0,0,0-9.37Z"/><path class="cls-1" d="M13.15,15.74h4.49A16.58,16.58,0,0,1,15.17,13Z"/><path class="cls-1" d="M12.25,15.74h.28l2.35-3.15A16.73,16.73,0,0,1,12.5,7.32,16.5,16.5,0,0,1,10,12.71Z"/><path class="cls-1" d="M9.73,13.14a16.57,16.57,0,0,1-2.39,2.6h4.29Z"/>
   </g>
</g>
</svg>